<?xml version="1.0" encoding="utf-8"?>
<!-- Generator: Adobe Illustrator 15.1.0, SVG Export Plug-In  -->
<!DOCTYPE svg PUBLIC "-//W3C//DTD SVG 1.1//EN" "http://www.w3.org/Graphics/SVG/1.1/DTD/svg11.dtd" [
	<!ENTITY ns_flows "http://ns.adobe.com/Flows/1.0/">
]>
<svg version="1.1"
	 xmlns="http://www.w3.org/2000/svg" xmlns:xlink="http://www.w3.org/1999/xlink" xmlns:a="http://ns.adobe.com/AdobeSVGViewerExtensions/3.0/"
	 x="0px" y="0px" width="800px" height="600px" viewBox="-140 -61.152 800 600" enable-background="new -140 -61.152 800 600"
	 xml:space="preserve">
<defs>
</defs>
<path d="M247,126.011L125,67.71v114.843l122,64.779V126.011z M238,232.363l-104-55.221V81.985l104,49.699V232.363z"/>
<path d="M443.624,228.338l0.092-2.407l-60.147-34.039L406,176.19V57.244L322.595,9.287L218.664,14.54L187.228,0l-78.226,27.604
	l-0.004,0.001L106,28.664v0.057v6.073v147.113L63.415,192.48l-0.328,2.537L60,196.848v88l2.513,4.037l208.156,102.462l0,0
	l0.001,0.001l1.094,0.538l4.096-0.063l167.75-89l2.391-3.976v-69L443.624,228.338z M186.771,9.705L216.9,23.64h0L336,78.725v135.48
	v2.343v23.561l-61.028,31.496L274.3,101.954L122.42,32.413L186.771,9.705z M320.404,18.409L397,62.451v109.054l-52,36.4V72.971
	L236.228,22.663L320.404,18.409z M265.324,107.742l0.646,163.26L115,186.214v-0.788V38.914L265.324,107.742z M156.904,220.07
	l111.643,62.646l0,0l2.111,1.132h0.002l0,0l2.153-1.057l0,0l69.75-35.97l0,0l2.437-1.23v-2.741v-23.959l30.399-21.279l56.304,31.863
	l-160.547,75.33l-103.044-56.388l-91.335-49.98L106,191.18v0.302L156.904,220.07z M69,282.047V204.44l197.774,108.225l0.803,43.386
	l0.443,23.961L69,282.047z M437,296.141l-159.96,84.867l-1.267-68.429l137.312-64.428L437,236.93V296.141z"/>
<rect x="82.122" y="267.963" transform="matrix(-0.8835 -0.4684 0.4684 -0.8835 105.9365 571.2699)" width="83.756" height="9"/>
<path d="M227.346,314.744l-20-9L201,309.848v16l2.185,3.858l20,12l6.815-3.858v-19L227.346,314.744z M221,329.899l-11-6.6v-6.492
	l11,4.949V329.899z"/>
<rect x="366.5" y="86.916" transform="matrix(0.4104 0.9119 -0.9119 0.4104 318.0074 -274.141)" width="9" height="43.863"/>
<rect x="366.5" y="107.916" transform="matrix(0.4104 0.9119 -0.9119 0.4104 337.1576 -261.759)" width="9" height="43.863"/>
<rect x="366.5" y="128.916" transform="matrix(0.4104 0.9119 -0.9119 0.4104 356.3077 -249.377)" width="9" height="43.863"/>
<path d="M0,388.443h11.4v26.502h0.2c2.8-4.701,8.701-8.201,15.501-8.201c11.201,0,18.301,6.001,18.301,17.602v35.502H34.002v-32.502
	c-0.2-8.101-3.4-11.601-10.101-11.601c-7.601,0-12.501,6-12.501,13.601v30.502H0V388.443z"/>
<path d="M66.299,436.946c0,8.101,4.4,15.301,13.901,15.301c6.601,0,10.601-2.9,12.601-8.601h10.801
	c-2.5,11.301-12.101,17.602-23.401,17.602c-16.201,0-25.302-11.301-25.302-27.202c0-14.701,9.601-27.302,25.002-27.302
	c16.301,0,26.301,14.701,24.401,30.202H66.299z M92.901,429.445c-0.4-7.2-5.3-13.7-13-13.7c-7.901,0-13.301,6-13.601,13.7H92.901z"
	/>
<path d="M113.299,388.443H124.7v71.404h-11.401V388.443z"/>
<path d="M137.398,388.443h11.401v71.404h-11.401V388.443z"/>
<path d="M158.798,433.946c0-15.801,9.5-27.202,26.102-27.202s26.102,11.401,26.102,27.202c0,15.9-9.5,27.302-26.102,27.302
	S158.798,449.847,158.798,433.946z M199.601,433.946c0-8.9-4.5-18.201-14.701-18.201s-14.701,9.301-14.701,18.201
	c0,9,4.5,18.301,14.701,18.301S199.601,442.946,199.601,433.946z"/>
<path d="M243.597,408.145h12.101l10.101,38.603h0.199l9.701-38.603h11.5l9.301,38.603h0.2l10.501-38.603h11.601L302.6,459.848h-11.7
	l-9.602-38.402h-0.199l-9.501,38.402h-12L243.597,408.145z"/>
<path d="M323.697,433.946c0-15.801,9.5-27.202,26.102-27.202c16.601,0,26.102,11.401,26.102,27.202
	c0,15.9-9.501,27.302-26.102,27.302C333.197,461.248,323.697,449.847,323.697,433.946z M364.499,433.946
	c0-8.9-4.5-18.201-14.7-18.201c-10.201,0-14.701,9.301-14.701,18.201c0,9,4.5,18.301,14.701,18.301
	C359.999,452.247,364.499,442.946,364.499,433.946z"/>
<path d="M385.395,408.145h10.701v10.001h0.2c1.3-5.501,8.101-11.401,15.101-11.401c2.601,0,3.3,0.2,4.3,0.301v11
	c-1.6-0.2-3.3-0.5-4.899-0.5c-7.801,0-14.001,6.301-14.001,17.701v24.602h-11.401V408.145z"/>
<path d="M420.895,388.443h11.4v71.404h-11.4V388.443z"/>
<path d="M493.397,459.848h-10.801v-7h-0.199c-3.001,5.9-9.501,8.4-16.001,8.4c-16.302,0-24.202-12.101-24.202-27.602
	c0-18.701,11.101-26.902,22.401-26.902c6.501,0,13.701,2.4,17.201,8.101h0.2v-26.401h11.4V459.848z M467.896,452.247
	c10.2,0,14.501-9.301,14.501-18.301c0-11.401-5.501-18.201-14.302-18.201c-10.7,0-14.5,9.5-14.5,18.801
	C453.595,443.446,457.995,452.247,467.896,452.247z"/>
</svg>
