<?xml version="1.0" encoding="utf-8"?>
<!-- Generator: Adobe Illustrator 15.1.0, SVG Export Plug-In  -->
<!DOCTYPE svg PUBLIC "-//W3C//DTD SVG 1.1//EN" "http://www.w3.org/Graphics/SVG/1.1/DTD/svg11.dtd" [
	<!ENTITY ns_flows "http://ns.adobe.com/Flows/1.0/">
]>
<svg version="1.1"
	 xmlns="http://www.w3.org/2000/svg" xmlns:xlink="http://www.w3.org/1999/xlink" xmlns:a="http://ns.adobe.com/AdobeSVGViewerExtensions/3.0/"
	 x="0px" y="0px" width="800px" height="600px" viewBox="-140 -61.152 800 600" enable-background="new -140 -61.152 800 600"
	 xml:space="preserve">
<defs>
</defs>
<polygon fill="none" stroke="#000000" stroke-width="9" points="401.5,59.848 321.5,13.848 217.782,19.09 187,4.853 110.5,31.848 
	110.5,188.848 270.75,278.848 340.5,242.85 340.5,216.548 401.5,173.848 "/>
<polygon fill="none" stroke="#000000" stroke-width="9" points="187,4.853 110.5,31.848 110.5,31.905 269.812,104.848 
	270.5,278.707 270.75,278.848 340.5,242.85 340.5,75.848 "/>
<polygon fill="none" stroke="#000000" stroke-width="9" points="129.5,74.848 129.5,179.848 242.5,239.848 242.5,128.848 "/>
<polygon fill="none" stroke="#000000" stroke-width="9" stroke-linejoin="bevel" points="375.144,192.297 340.5,216.548 
	340.5,242.85 270.75,278.848 110.5,188.848 110.5,185.426 64.5,196.848 271,309.848 441.5,229.848 "/>
<polygon fill="none" stroke="#000000" stroke-width="9" stroke-linejoin="bevel" points="271,309.848 64.5,196.848 64.5,284.848 
	272.656,387.31 271.22,309.744 "/>
<polygon fill="none" stroke="#000000" stroke-width="9" stroke-linejoin="bevel" points="271.22,309.744 272.656,387.31 
	273.75,387.848 441.5,298.848 441.5,229.848 "/>
<line fill="none" stroke="#000000" stroke-width="9" stroke-linejoin="bevel" x1="87" y1="252.848" x2="161" y2="292.078"/>
<polygon fill="none" stroke="#000000" stroke-width="9" stroke-linejoin="bevel" points="205.5,309.848 205.5,325.848 
	225.5,337.848 225.5,318.848 "/>
<line fill="none" stroke="#000000" stroke-width="9" x1="391" y1="99.848" x2="351" y2="117.848"/>
<line fill="none" stroke="#000000" stroke-width="9" x1="391" y1="120.848" x2="351" y2="138.848"/>
<line fill="none" stroke="#000000" stroke-width="9" x1="391" y1="141.848" x2="351" y2="159.848"/>
<path d="M0,388.443h11.4v26.502h0.2c2.8-4.701,8.701-8.201,15.501-8.201c11.201,0,18.301,6.001,18.301,17.602v35.502H34.002v-32.502
	c-0.2-8.101-3.4-11.601-10.101-11.601c-7.601,0-12.501,6-12.501,13.601v30.502H0V388.443z"/>
<path d="M66.299,436.946c0,8.101,4.4,15.301,13.901,15.301c6.601,0,10.601-2.9,12.601-8.601h10.801
	c-2.5,11.301-12.101,17.602-23.401,17.602c-16.201,0-25.302-11.301-25.302-27.202c0-14.701,9.601-27.302,25.002-27.302
	c16.301,0,26.301,14.701,24.401,30.202H66.299z M92.901,429.445c-0.4-7.2-5.3-13.7-13-13.7c-7.901,0-13.301,6-13.601,13.7H92.901z"
	/>
<path d="M113.299,388.443H124.7v71.404h-11.401V388.443z"/>
<path d="M137.398,388.443h11.401v71.404h-11.401V388.443z"/>
<path d="M158.798,433.946c0-15.801,9.5-27.202,26.102-27.202s26.102,11.401,26.102,27.202c0,15.9-9.5,27.302-26.102,27.302
	S158.798,449.847,158.798,433.946z M199.601,433.946c0-8.9-4.5-18.201-14.701-18.201s-14.701,9.301-14.701,18.201
	c0,9,4.5,18.301,14.701,18.301S199.601,442.946,199.601,433.946z"/>
<path d="M243.597,408.145h12.101l10.101,38.603h0.199l9.701-38.603h11.5l9.301,38.603h0.2l10.501-38.603h11.601L302.6,459.848h-11.7
	l-9.602-38.402h-0.199l-9.501,38.402h-12L243.597,408.145z"/>
<path d="M323.697,433.946c0-15.801,9.5-27.202,26.102-27.202c16.601,0,26.102,11.401,26.102,27.202
	c0,15.9-9.501,27.302-26.102,27.302C333.197,461.248,323.697,449.847,323.697,433.946z M364.499,433.946
	c0-8.9-4.5-18.201-14.7-18.201c-10.201,0-14.701,9.301-14.701,18.201c0,9,4.5,18.301,14.701,18.301
	C359.999,452.247,364.499,442.946,364.499,433.946z"/>
<path d="M385.395,408.145h10.701v10.001h0.2c1.3-5.501,8.101-11.401,15.101-11.401c2.601,0,3.3,0.2,4.3,0.301v11
	c-1.6-0.2-3.3-0.5-4.899-0.5c-7.801,0-14.001,6.301-14.001,17.701v24.602h-11.401V408.145z"/>
<path d="M420.895,388.443h11.4v71.404h-11.4V388.443z"/>
<path d="M493.397,459.848h-10.801v-7h-0.199c-3.001,5.9-9.501,8.4-16.001,8.4c-16.302,0-24.202-12.101-24.202-27.602
	c0-18.701,11.101-26.902,22.401-26.902c6.501,0,13.701,2.4,17.201,8.101h0.2v-26.401h11.4V459.848z M467.896,452.247
	c10.2,0,14.501-9.301,14.501-18.301c0-11.401-5.501-18.201-14.302-18.201c-10.7,0-14.5,9.5-14.5,18.801
	C453.595,443.446,457.995,452.247,467.896,452.247z"/>
</svg>
